HIERARCHY
ROOT Hips
{
	OFFSET 0.00000 0.00000 0.00000
	CHANNELS 6 Xposition Yposition Zposition Zrotation Yrotation Xrotation 
	JOINT LHipJoint
	{
		OFFSET 0 0 0
		CHANNELS 3 Zrotation Yrotation Xrotation
		JOINT LeftHip
		{
			OFFSET 1.37324 -1.83837 0.85674
			CHANNELS 3 Zrotation Yrotation Xrotation
			JOINT LeftKnee
			{
				OFFSET 2.53826 -6.97383 0.00000
				CHANNELS 3 Zrotation Yrotation Xrotation
				JOINT LeftAnkle
				{
					OFFSET 2.65296 -7.28895 0.00000
					CHANNELS 3 Zrotation Yrotation Xrotation
					JOINT LeftToe
					{
						OFFSET 0.22100 -0.60718 2.29776
						CHANNELS 3 Zrotation Yrotation Xrotation
						End Site
						{
							OFFSET 0.00000 -0.00000 1.19228
						}
					}
				}
			}
		}
	}
	JOINT RHipJoint
	{
		OFFSET 0 0 0
		CHANNELS 3 Zrotation Yrotation Xrotation
		JOINT RightHip
		{
			OFFSET -1.30156 -1.83836 0.85673
			CHANNELS 3 Zrotation Yrotation Xrotation
			JOINT RightKnee
			{
				OFFSET -2.63627 -7.24310 0.00000
				CHANNELS 3 Zrotation Yrotation Xrotation
				JOINT RightAnkle
				{
					OFFSET -2.62024 -7.19904 0.00000
					CHANNELS 3 Zrotation Yrotation Xrotation
					JOINT RightToe
					{
						OFFSET -0.20765 -0.57052 2.42402
						CHANNELS 3 Zrotation Yrotation Xrotation
						End Site
						{
							OFFSET -0.00000 -0.00000 1.24980
						}
					}
				}
			}
		}
	}
	JOINT lowerback
	{
		OFFSET 0 0 0
		CHANNELS 3 Zrotation Yrotation Xrotation
		JOINT Chest
		{
			OFFSET 0.05739 2.14162 -0.22815
			CHANNELS 3 Zrotation Yrotation Xrotation
			JOINT Chest2
			{
				OFFSET 0.02798 2.14167 0.08145
				CHANNELS 3 Zrotation Yrotation Xrotation
				JOINT lowerneck
				{
					OFFSET 0 0 0
					CHANNELS 3 Zrotation Yrotation Xrotation
					JOINT Neck
					{
						OFFSET -0.07019 1.58903 0.32980
						CHANNELS 3 Zrotation Yrotation Xrotation
						JOINT Head
						{
							OFFSET -0.03205 1.65283 -0.21190
							CHANNELS 3 Zrotation Yrotation Xrotation
							End Site
							{
								OFFSET -0.00726 1.66788 -0.10849
							}
						}
					}
				}
				JOINT LeftCollar
				{
					OFFSET 0 0 0
					CHANNELS 3 Zrotation Yrotation Xrotation
					JOINT LeftShoulder
					{
						OFFSET 3.92858 0.97533 -0.07938
CHANNELS 3 Zrotation Xrotation Yrotation
						JOINT LeftElbow
						{
OFFSET 0 -5.583450 -0.000000
CHANNELS 3 Zrotation Xrotation Yrotation
							JOINT LeftWrist
							{
OFFSET 0 -3.710870 0.000000
CHANNELS 3 Zrotation Xrotation Yrotation
								JOINT lhand
								{
									OFFSET 0 0 0
CHANNELS 3 Zrotation Xrotation Yrotation
									JOINT LFingers
									{
OFFSET 0 -0.562320 -0.000000
CHANNELS 3 Zrotation Xrotation Yrotation
										End Site
										{
OFFSET 0 -0.453360 -0.000000
										}
									}
								}
								JOINT LThumb
								{
OFFSET 0 0.000000 0.000000
CHANNELS 3 Zrotation Xrotation Yrotation
									End Site
									{
OFFSET 0 -0.460280 0.460280
									}
								}
							}
						}
					}
				}
				JOINT RightCollar
				{
					OFFSET 0 0 0
					CHANNELS 3 Zrotation Yrotation Xrotation
					JOINT RightShoulder
					{
						OFFSET -3.89897 1.08887 -0.22589
CHANNELS 3 Zrotation Xrotation Yrotation
						JOINT RightElbow
						{
OFFSET 0 -5.203570 -0.000000
CHANNELS 3 Zrotation Xrotation Yrotation
							JOINT RightWrist
							{
OFFSET 0 -3.649370 0.000000
CHANNELS 3 Zrotation Xrotation Yrotation
								JOINT rhand
								{
									OFFSET 0 0 0
CHANNELS 3 Zrotation Xrotation Yrotation
									JOINT RFingers
									{
OFFSET 0 -0.618000 -0.000000
CHANNELS 3 Zrotation Xrotation Yrotation
										End Site
										{
OFFSET 0 -0.498240 -0.000000
										}
									}
								}
								JOINT RThumb
								{
OFFSET 0 0.000000 0.000000
CHANNELS 3 Zrotation Xrotation Yrotation
									End Site
									{
OFFSET 0 -0.505850 0.505850
									}
								}
							}
						}
					}
				}
			}
		}
	}
}
MOTION
Frames: 12
Frame Time: 0.008333333333333333
1.975441 17.842377 16.310173 -4.398451 1.869158 7.777702 0.000000 0.000000 0.000000 -18.032596 -7.359512 -14.778223 3.339236 11.224887 33.042258 0.861875 -12.281971 -17.483256 0.506430 4.561424 12.661842 0.000000 0.000000 0.000000 26.359423 3.676802 -10.168465 -3.066647 -10.802232 31.615683 -1.155064 7.879188 -19.217700 -0.095984 -1.997625 5.499057 4.301626 0.861098 4.767011 2.971845 1.622520 -2.909651 0.525613 0.699581 -5.677000 -3.145684 -0.993615 -21.562208 -1.793990 0.025281 17.012993 -0.099981 -0.403089 8.882425 0.000000 0.000000 0.000000 2.996966 14.730065 -27.016275 31.684580 -42.292607 12.528611 25.318677 -3.817871 5.014182 0.000000 0.000000 0.000000 -7.125000 0.000000 0.000000 -1.012786 24.435904 -0.503131 0.000000 0.000000 0.000000 -4.417606 0.473716 31.585880 -56.296172 -55.239300 -31.278174 -36.525532 4.311481 -0.311883 0.000000 0.000000 0.000000 7.125000 0.000000 0.000000 -7.803785 29.548564 -2.965141
1.981724 17.835931 16.345119 -4.394754 1.907475 7.895106 0.000000 0.000000 0.000000 -18.050789 -7.370735 -14.781070 3.342508 11.229860 33.059175 0.875225 -12.379513 -17.619769 0.519289 4.617672 12.821325 0.000000 0.000000 0.000000 26.332068 3.641005 -10.191795 -3.072340 -10.811296 31.646048 -1.171392 7.944565 -19.354900 -0.092352 -1.959276 5.393171 4.339877 0.845293 4.771232 2.972336 1.604360 -2.907753 0.506438 0.689143 -5.677000 -3.140252 -0.986646 -21.579223 -1.818171 0.038042 16.970979 -0.107343 -0.398868 8.870874 0.000000 0.000000 0.000000 3.045099 14.651796 -27.284425 31.980739 -42.528822 12.728832 25.274830 -3.952813 4.967947 0.000000 0.000000 0.000000 -7.125000 0.000000 0.000000 -1.044558 24.488913 -0.517594 0.000000 0.000000 0.000000 -4.409819 0.473749 31.684240 -56.227915 -55.217901 -31.222123 -36.509597 4.242243 -0.295850 0.000000 0.000000 0.000000 7.125000 0.000000 0.000000 -7.792954 29.568491 -2.957222
1.988006 17.829485 16.380066 -4.391056 1.945791 8.012509 0.000000 0.000000 0.000000 -18.068982 -7.381958 -14.783917 3.345780 11.234834 33.076092 0.888576 -12.477055 -17.756282 0.532149 4.673919 12.980808 0.000000 0.000000 0.000000 26.304713 3.605208 -10.215126 -3.078034 -10.820359 31.676413 -1.187720 8.009942 -19.492100 -0.088720 -1.920927 5.287285 4.378128 0.829489 4.775453 2.972827 1.586199 -2.905855 0.487263 0.678705 -5.677000 -3.134821 -0.979676 -21.596238 -1.842352 0.050803 16.928965 -0.114706 -0.394647 8.859324 0.000000 0.000000 0.000000 3.093232 14.573527 -27.552576 32.276899 -42.765036 12.929053 25.230984 -4.087756 4.921712 0.000000 0.000000 0.000000 -7.125000 0.000000 0.000000 -1.076331 24.541921 -0.532057 0.000000 0.000000 0.000000 -4.402031 0.473782 31.782600 -56.159659 -55.196501 -31.166071 -36.493662 4.173005 -0.279817 0.000000 0.000000 0.000000 7.125000 0.000000 0.000000 -7.782123 29.588418 -2.949304
1.993940 17.823169 16.414504 -4.394635 1.946679 8.148388 0.000000 0.000000 0.000000 -18.080204 -7.382521 -14.811005 3.348791 11.239386 33.091571 0.902797 -12.556863 -17.893957 0.545342 4.730675 13.141932 0.000000 0.000000 0.000000 26.278868 3.605750 -10.253227 -3.084729 -10.830992 31.712036 -1.202610 8.081695 -19.617042 -0.085175 -1.882273 5.180543 4.409320 0.828703 4.770276 2.976208 1.587458 -2.910000 0.473361 0.678129 -5.677799 -3.129592 -0.976207 -21.606760 -1.870600 0.059338 16.884613 -0.123956 -0.392794 8.845899 0.000000 0.000000 0.000000 3.143326 14.490465 -27.829847 32.567249 -42.993436 13.126470 25.206760 -4.238123 4.911265 0.000000 0.000000 0.000000 -7.125000 0.000000 0.000000 -1.094189 24.554552 -0.540623 0.000000 0.000000 0.000000 -4.398412 0.479188 31.880597 -56.103908 -55.178994 -31.120303 -36.466180 4.108008 -0.262127 0.000000 0.000000 0.000000 7.125000 0.000000 0.000000 -7.762418 29.610553 -2.937594
1.999437 17.817018 16.448305 -4.407331 1.900673 8.307413 0.000000 0.000000 0.000000 -18.082691 -7.369727 -14.868463 3.351474 11.243411 33.105249 0.918111 -12.614452 -18.033087 0.558954 4.788068 13.305113 0.000000 0.000000 0.000000 26.254916 3.651822 -10.309835 -3.092681 -10.843589 31.754247 -1.215698 8.161437 -19.726625 -0.081739 -1.843236 5.072726 4.431669 0.846732 4.753327 2.983211 1.613046 -2.921714 0.466064 0.689908 -5.679598 -3.124619 -0.977123 -21.609149 -1.903943 0.062577 16.837330 -0.135572 -0.393906 8.830128 0.000000 0.000000 0.000000 3.195876 14.401398 -28.118546 32.850320 -43.212047 13.320376 25.207120 -4.407815 4.945655 0.000000 0.000000 0.000000 -7.125000 0.000000 0.000000 -1.094614 24.516595 -0.541801 0.000000 0.000000 0.000000 -4.400015 0.491328 31.978139 -56.063824 -55.166363 -31.087418 -36.424231 4.048324 -0.242364 0.000000 0.000000 0.000000 7.125000 0.000000 0.000000 -7.731595 29.635454 -2.921136
2.004934 17.810866 16.482106 -4.420027 1.854667 8.466438 0.000000 0.000000 0.000000 -18.085177 -7.356933 -14.925921 3.354157 11.247436 33.118926 0.933424 -12.672041 -18.172218 0.572566 4.845461 13.468293 0.000000 0.000000 0.000000 26.230964 3.697893 -10.366442 -3.100632 -10.856187 31.796457 -1.228787 8.241179 -19.836208 -0.078304 -1.804200 4.964910 4.454017 0.864762 4.736377 2.990213 1.638634 -2.933428 0.458767 0.701688 -5.681398 -3.119645 -0.978039 -21.611538 -1.937286 0.065817 16.790048 -0.147188 -0.395019 8.814356 0.000000 0.000000 0.000000 3.248426 14.312331 -28.407245 33.133391 -43.430657 13.514282 25.207480 -4.577507 4.980045 0.000000 0.000000 0.000000 -7.125000 0.000000 0.000000 -1.095040 24.478639 -0.542979 0.000000 0.000000 0.000000 -4.401618 0.503468 32.075680 -56.023741 -55.153733 -31.054534 -36.382283 3.988641 -0.222600 0.000000 0.000000 0.000000 7.125000 0.000000 0.000000 -7.700771 29.660355 -2.904677
2.010698 17.804169 16.516338 -4.432850 1.823518 8.602396 0.000000 0.000000 0.000000 -18.090849 -7.354378 -14.951597 3.356739 11.251308 33.132096 0.950222 -12.719011 -18.319088 0.583653 4.891829 13.600211 0.000000 0.000000 0.000000 26.210705 3.731568 -10.401227 -3.109598 -10.870358 31.843971 -1.243702 8.308144 -19.958796 -0.073853 -1.751017 4.818129 4.485844 0.879924 4.738929 2.996213 1.662078 -2.939864 0.445025 0.711970 -5.688577 -3.125596 -0.981493 -21.616971 -1.961240 0.067305 16.749351 -0.154097 -0.396740 8.801401 0.000000 0.000000 0.000000 3.305684 14.232818 -28.712172 33.434162 -43.659608 13.721447 25.200379 -4.737696 4.976257 0.000000 0.000000 0.000000 -7.125000 0.000000 0.000000 -1.100261 24.483136 -0.545438 0.000000 0.000000 0.000000 -4.403590 0.526189 32.165445 -55.997081 -55.145328 -31.032662 -36.353910 3.931165 -0.198776 0.000000 0.000000 0.000000 7.125000 0.000000 0.000000 -7.680936 29.690064 -2.891555
2.016882 17.796611 16.551251 -4.445873 1.815829 8.701934 0.000000 0.000000 0.000000 -18.101549 -7.367990 -14.927089 3.359160 11.254940 33.144465 0.969364 -12.749213 -18.478179 0.590754 4.920787 13.682767 0.000000 0.000000 0.000000 26.196275 3.745671 -10.401554 -3.120167 -10.887013 31.899859 -1.261503 8.354935 -20.101919 -0.067799 -1.675496 4.609826 4.532635 0.890558 4.772272 3.000630 1.682136 -2.937966 0.421106 0.719889 -5.704251 -3.148795 -0.988953 -21.627213 -1.970369 0.066029 16.719051 -0.153573 -0.399424 8.792894 0.000000 0.000000 0.000000 3.370374 14.168390 -29.042722 33.762879 -43.904886 13.949546 25.181499 -4.882880 4.912189 0.000000 0.000000 0.000000 -7.125000 0.000000 0.000000 -1.113055 24.554664 -0.549921 0.000000 0.000000 0.000000 -4.406142 0.565618 32.242929 -55.991617 -55.143593 -31.028179 -36.346973 3.877175 -0.168542 0.000000 0.000000 0.000000 7.125000 0.000000 0.000000 -7.678449 29.727366 -2.883702
2.023067 17.789052 16.586165 -4.458896 1.808139 8.801472 0.000000 0.000000 0.000000 -18.112249 -7.381602 -14.902580 3.361582 11.258572 33.156833 0.988506 -12.779414 -18.637269 0.597854 4.949745 13.765323 0.000000 0.000000 0.000000 26.181845 3.759774 -10.401881 -3.130736 -10.903668 31.955746 -1.279303 8.401726 -20.245042 -0.061746 -1.599975 4.401523 4.579426 0.901192 4.805615 3.005048 1.702194 -2.936068 0.397187 0.727808 -5.719924 -3.171994 -0.996414 -21.637455 -1.979498 0.064753 16.688751 -0.153050 -0.402107 8.784386 0.000000 0.000000 0.000000 3.435063 14.103962 -29.373271 34.091596 -44.150164 14.177646 25.162619 -5.028064 4.848121 0.000000 0.000000 0.000000 -7.125000 0.000000 0.000000 -1.125849 24.626193 -0.554404 0.000000 0.000000 0.000000 -4.408694 0.605047 32.320412 -55.986152 -55.141859 -31.023696 -36.340036 3.823185 -0.138308 0.000000 0.000000 0.000000 7.125000 0.000000 0.000000 -7.675962 29.764668 -2.875849
2.029121 17.781515 16.621024 -4.450921 1.810433 8.902725 0.000000 0.000000 0.000000 -18.144022 -7.394726 -14.878105 3.363558 11.261543 33.166956 1.006813 -12.822931 -18.792193 0.605465 4.980592 13.853282 0.000000 0.000000 0.000000 26.146591 3.772347 -10.406766 -3.142954 -10.922863 32.020218 -1.298536 8.443819 -20.398006 -0.055747 -1.520841 4.183323 4.602149 0.905804 4.834682 3.006296 1.711845 -2.931219 0.384445 0.731559 -5.730747 -3.185818 -1.000532 -21.645787 -1.998296 0.066830 16.649477 -0.156856 -0.403509 8.772450 0.000000 0.000000 0.000000 3.501381 14.036376 -29.703311 34.431610 -44.400434 14.414741 25.129089 -5.184967 4.797487 0.000000 0.000000 0.000000 -7.125000 0.000000 0.000000 -1.149918 24.683495 -0.564746 0.000000 0.000000 0.000000 -4.422347 0.628123 32.417982 -55.966516 -55.135622 -31.007581 -36.351862 3.752299 -0.105360 0.000000 0.000000 0.000000 7.125000 0.000000 0.000000 -7.688407 29.805118 -2.873052
2.034912 17.774022 16.655774 -4.400629 1.832847 9.007432 0.000000 0.000000 0.000000 -18.218266 -7.406865 -14.853695 3.364638 11.263179 33.172551 1.023435 -12.893281 -18.938718 0.614103 5.015243 13.952133 0.000000 0.000000 0.000000 26.069369 3.781836 -10.420836 -3.158497 -10.947174 32.101988 -1.320655 8.476442 -20.570807 -0.049857 -1.434425 3.945178 4.576365 0.898278 4.855133 3.001159 1.700524 -2.920421 0.394228 0.726913 -5.731794 -3.180746 -0.997914 -21.650269 -2.036580 0.075665 16.592117 -0.169388 -0.402331 8.753602 0.000000 0.000000 0.000000 3.570979 13.962426 -30.032323 34.794390 -44.660764 14.669966 25.066036 -5.365490 4.773928 0.000000 0.000000 0.000000 -7.125000 0.000000 0.000000 -1.196709 24.712126 -0.586899 0.000000 0.000000 0.000000 -4.458373 0.618241 32.556033 -55.918318 -55.120308 -30.968021 -36.401500 3.647363 -0.066946 0.000000 0.000000 0.000000 7.125000 0.000000 0.000000 -7.730944 29.851909 -2.880447
2.040704 17.766529 16.690524 -4.350336 1.855261 9.112140 0.000000 0.000000 0.000000 -18.292511 -7.419005 -14.829285 3.365718 11.264815 33.178146 1.040057 -12.963632 -19.085244 0.622742 5.049895 14.050984 0.000000 0.000000 0.000000 25.992147 3.791325 -10.434906 -3.174040 -10.971486 32.183758 -1.342775 8.509065 -20.743608 -0.043967 -1.348008 3.707034 4.550580 0.890752 4.875584 2.996022 1.689202 -2.909623 0.404012 0.722266 -5.732841 -3.175674 -0.995296 -21.654752 -2.074864 0.084499 16.534757 -0.181921 -0.401153 8.734755 0.000000 0.000000 0.000000 3.640577 13.888476 -30.361334 35.157170 -44.921094 14.925192 25.002982 -5.546013 4.750368 0.000000 0.000000 0.000000 -7.125000 0.000000 0.000000 -1.243500 24.740757 -0.609051 0.000000 0.000000 0.000000 -4.494399 0.608359 32.694084 -55.870119 -55.104994 -30.928461 -36.451138 3.542426 -0.028531 0.000000 0.000000 0.000000 7.125000 0.000000 0.000000 -7.773482 29.898700 -2.887842
